<svg width="140.000000" height="24.000000" viewBox="0 0 140 24" fill="none" xmlns="http://www.w3.org/2000/svg" xmlns:xlink="http://www.w3.org/1999/xlink">
	<desc>
			Created with Pixso.
	</desc>
	<defs>
		<clipPath id="clip0_32">
			<rect id="part2" width="97.000000" height="15.000000" transform="translate(43.000000 5.000000)" fill="white"/>
		</clipPath>
		<clipPath id="clip0_34">
			<rect id="part1" width="35.000000" height="24.000000" fill="white"/>
		</clipPath>
	</defs>
	<g clip-path="url(#clip0_32)">
		<path id="Vector" d="M45.0018 5L51.2891 17.5571L50.4984 19.1196L43.1697 5L45.0018 5ZM65.3871 5L58.1163 19.1196L50.4598 5L52.2341 5L58.1163 16.051C58.412 15.4861 58.7463 14.8367 59.1191 14.1025C59.492 13.3682 59.868 12.6121 60.2474 11.8339C60.6267 11.0557 61.0027 10.287 61.3756 9.52771C61.7484 8.76837 62.086 8.07495 62.3881 7.44739C62.6903 6.81989 62.9442 6.28644 63.1499 5.84717C63.3557 5.4079 63.4906 5.12549 63.5549 5L65.3871 5ZM79.2619 6.37433L79.2619 5L69.9276 5L69.9276 19.1384L79.2619 19.1384L79.2619 17.7642L71.3547 17.7642L71.3547 12.7752L77.9505 12.7752L77.9505 11.4009L71.3547 11.4009L71.3547 6.37433L79.2619 6.37433ZM83.4167 19.1384L83.4167 5L84.8438 5L84.8438 17.7642L92.751 17.7642L92.751 19.1384L83.4167 19.1384ZM96.9058 5L96.9058 19.1384L103.829 19.1384C103.932 19.1384 104.161 19.1039 104.514 19.0349C104.868 18.9658 105.25 18.8121 105.662 18.5737C105.854 18.4607 106.057 18.3132 106.269 18.1313C106.481 17.9492 106.671 17.7264 106.838 17.463C107.005 17.1993 107.143 16.8887 107.253 16.5311C107.362 16.1733 107.417 15.756 107.417 15.2791C107.417 14.7394 107.346 14.2687 107.205 13.8671C107.063 13.4655 106.883 13.1204 106.664 12.8317C106.446 12.543 106.198 12.3108 105.922 12.1351C105.646 11.9594 105.366 11.8214 105.083 11.7209C105.366 11.4448 105.61 11.0652 105.816 10.582C106.022 10.0988 106.125 9.51831 106.125 8.84052C106.125 8.3385 106.07 7.90552 105.961 7.5415C105.851 7.17755 105.713 6.86377 105.546 6.60022C105.379 6.33667 105.192 6.117 104.987 5.94128C104.781 5.76562 104.582 5.62128 104.389 5.5083C104.17 5.38281 103.961 5.28552 103.762 5.21649C103.563 5.14746 103.383 5.09729 103.222 5.06592C103.061 5.03448 102.929 5.01569 102.827 5.0094C102.724 5.00311 102.666 5 102.653 5L96.9058 5ZM103.791 17.7642C103.842 17.7642 103.984 17.7422 104.215 17.6982C104.447 17.6543 104.694 17.5508 104.958 17.3876C105.221 17.2244 105.456 16.9766 105.662 16.6439C105.867 16.3114 105.97 15.8564 105.97 15.2791C105.97 14.7017 105.867 14.2468 105.662 13.9142C105.456 13.5816 105.221 13.3306 104.958 13.1611C104.694 12.9917 104.443 12.885 104.206 12.8411C103.968 12.7972 103.823 12.7752 103.772 12.7752L98.333 12.7752L98.333 17.7642L103.791 17.7642ZM103.068 11.3256C102.843 11.3758 102.704 11.4009 102.653 11.4009L98.333 11.4009L98.333 6.37433L102.653 6.37433C102.679 6.37433 102.801 6.39313 103.019 6.43079C103.238 6.46844 103.476 6.56573 103.733 6.7226C103.99 6.87946 104.225 7.12421 104.437 7.45679C104.649 7.78943 104.755 8.25067 104.755 8.84052C104.755 9.41785 104.656 9.87598 104.456 10.2148C104.257 10.5537 104.032 10.811 103.781 10.9867C103.531 11.1624 103.293 11.2754 103.068 11.3256ZM121.639 5L121.639 6.37433L113.731 6.37433L113.731 11.4009L120.327 11.4009L120.327 12.7752L113.731 12.7752L113.731 17.7642L121.639 17.7642L121.639 19.1384L112.304 19.1384L112.304 5L121.639 5ZM132.331 13.1141L137.153 19.1384L139.043 19.1384L133.431 12.0598L139.043 5L137.153 5L132.331 11.0244L127.78 5L125.639 5L131.251 12.0598L125.639 19.1384L127.78 19.1384L132.331 13.1141Z" fill-rule="evenodd" fill="#E4E5EA"/>
	</g>
	<g clip-path="url(#clip0_34)">
		<path id="Vector" d="M24.5946 0L0 0L0 12.7841L1.3208 12.7841L1.3208 1.28888L23.2737 1.28888L23.2737 5.52747L21.0842 5.52747L21.0842 5.53668L21.0684 5.53668C21.0096 5.65149 20.8861 5.90967 20.6979 6.31128C20.5098 6.71289 20.2776 7.20056 20.0012 7.77435C19.7249 8.34808 19.4162 8.98206 19.0752 9.67633C18.7342 10.3706 18.3901 11.0734 18.0433 11.7849C17.6964 12.4963 17.3524 13.1876 17.0114 13.859C16.6704 14.5303 16.3647 15.1241 16.0941 15.6404L10.7142 5.53668L9.09149 5.53668L16.0941 18.446L22.1009 6.78528L24.5927 6.78528L24.5927 6.77173L24.5946 6.77173L24.5946 0ZM0 17.1961L0.00610352 17.1961L0.00610352 17.1819L8.4704 17.1819L2.42401 5.53668L4.09973 5.53668L9.84998 17.0175L9.12677 18.446L9.11572 18.4247L9.11572 18.4398L1.3208 18.4398L1.3208 22.7111L23.2737 22.7111L23.2737 11.1838L24.5946 11.1838L24.5946 24L0 24L0 17.1961ZM33.6949 24L33.6949 0L35.0518 0L35.0518 24L33.6949 24Z" fill-rule="evenodd" fill="#E4E5EA"/>
	</g>
</svg>
