<svg width="16.000000" height="15.200012" viewBox="0 0 16 15.2" fill="none" xmlns="http://www.w3.org/2000/svg" xmlns:xlink="http://www.w3.org/1999/xlink">
	<desc>
			Created with Pixso.
	</desc>
	<defs/>
	<path id="phone" d="M8.25806 0.490295C8.25806 0.219543 8.48914 0 8.7742 0C12.7649 0 16 3.07336 16 6.8645C16 7.13531 15.7689 7.35486 15.4839 7.35486C15.1988 7.35486 14.9677 7.13531 14.9677 6.8645C14.9677 3.61493 12.1948 0.980652 8.7742 0.980652C8.48914 0.980652 8.25806 0.761108 8.25806 0.490295ZM3.27048 1.64581C2.97513 1.3844 2.45987 1.45679 2.1673 1.59967C1.15967 2.09167 0.690582 2.61755 0.273651 3.12189C-0.143311 3.62622 0.00726318 4.29565 0.134674 4.56726C0.470551 5.71027 2.4288 9.10156 4.70374 11.0561C8.2652 14.116 12.2957 15.2 12.7127 15.2C13.8419 15.2 15.1014 13.7931 15.3968 13.155C15.6331 12.6445 15.3331 12.2554 15.1536 12.1248C14.8582 11.9095 14.1928 11.4282 13.894 11.2252C13.5205 10.9715 12.6953 10.4333 11.9743 10.1873C11.3975 9.99048 10.9348 10.2693 10.7756 10.4333C10.6742 10.5563 10.3951 10.8793 10.0894 11.1868C9.79062 11.4872 9.44412 11.426 9.21164 11.385C9.14667 11.3735 9.09061 11.3636 9.04697 11.3636C8.36075 11.2175 7.26624 10.7562 6.23257 9.87982C5.19888 9.00336 4.59952 7.82709 4.32153 7.22736C4.09915 6.74762 4.35049 6.37146 4.50397 6.24329C4.66901 6.15106 5.07727 5.89423 5.38998 5.60516C5.78085 5.24384 5.694 4.64417 5.61581 4.47504C5.53766 4.30591 4.99039 3.54474 4.59952 3.04504C4.20862 2.54529 3.63965 1.97253 3.27048 1.64581ZM8.7742 1.9613C8.48914 1.9613 8.25806 2.18079 8.25806 2.4516C8.25806 2.72241 8.48914 2.94196 8.7742 2.94196C11.0546 2.94196 12.9032 4.69812 12.9032 6.8645C12.9032 7.13531 13.1343 7.35486 13.4193 7.35486C13.7044 7.35486 13.9355 7.13531 13.9355 6.8645C13.9355 4.15656 11.6247 1.9613 8.7742 1.9613ZM8.7742 3.92261C8.48914 3.92261 8.25806 4.14209 8.25806 4.4129C8.25806 4.68372 8.48914 4.9032 8.7742 4.9032C9.9144 4.9032 10.8387 5.78131 10.8387 6.8645C10.8387 7.13531 11.0698 7.35486 11.3548 7.35486C11.6399 7.35486 11.871 7.13531 11.871 6.8645C11.871 5.23975 10.4845 3.92261 8.7742 3.92261Z" fill-rule="evenodd" fill="#E4E5EA"/>
</svg>
