<svg width="16.000000" height="16.000000" viewBox="0 0 16 16" fill="none" xmlns="http://www.w3.org/2000/svg" xmlns:xlink="http://www.w3.org/1999/xlink">
	<desc>
			Created with Pixso.
	</desc>
	<defs/>
	<path id="Vector" d="M13.6687 2.3255C12.9307 1.58612 12.0527 0.999878 11.0854 0.600708C10.1181 0.201538 9.08084 -0.00262451 8.03369 0C3.64282 0 0.0683289 3.55664 0.0665588 7.92847C0.0665588 9.32568 0.433044 10.6893 1.12967 11.8923L0 16L4.22318 14.8969C5.39136 15.5298 6.7001 15.8616 8.03015 15.8622L8.03369 15.8622C12.4237 15.8622 15.9982 12.3056 16 7.93378C16.003 6.89203 15.7985 5.86005 15.3984 4.8974C14.9982 3.93475 14.4104 3.06061 13.6687 2.3255ZM8.03369 14.5242L8.03104 14.5242C6.84503 14.5243 5.68085 14.2067 4.66068 13.6048L4.41928 13.4617L1.91324 14.1161L2.58148 11.6847L2.42441 11.4357C1.76132 10.385 1.41031 9.16919 1.41187 7.92847C1.41364 4.29498 4.38379 1.33893 8.03638 1.33893C8.90625 1.33704 9.76788 1.50684 10.5714 1.8385C11.3749 2.17023 12.1043 2.65723 12.7174 3.27136C13.3339 3.88257 13.8224 4.60931 14.1549 5.40961C14.4875 6.20984 14.6573 7.06781 14.6547 7.93378C14.6529 11.5673 11.6827 14.5242 8.03369 14.5242ZM11.6659 9.58801C11.4662 9.48822 10.4883 9.00952 10.3055 8.94324C10.1236 8.87701 9.99133 8.84436 9.85822 9.04218C9.7251 9.23999 9.34351 9.68604 9.22726 9.81854C9.11102 9.95099 8.99478 9.96692 8.79599 9.86798C8.5972 9.76904 7.95563 9.55975 7.1951 8.88495C6.60321 8.3595 6.20386 7.71118 6.08762 7.51251C5.97137 7.31378 6.0752 7.20691 6.17548 7.10797C6.26511 7.01965 6.37427 6.87659 6.47363 6.76086C6.57303 6.6452 6.60587 6.56305 6.67242 6.4306C6.73898 6.2981 6.70615 6.18237 6.65555 6.0835C6.60587 5.9837 6.20743 5.00861 6.04147 4.61206C5.88086 4.22791 5.71667 4.27911 5.59421 4.2738C5.46738 4.26868 5.34045 4.2663 5.21353 4.26672C5.11258 4.26929 5.01328 4.2926 4.92178 4.33514C4.83032 4.37769 4.74869 4.4386 4.68198 4.51404C4.49915 4.71277 3.98535 5.19147 3.98535 6.1665C3.98535 7.14154 4.69882 8.08392 4.79822 8.21637C4.89761 8.34888 6.20209 10.3493 8.19876 11.2078C8.67441 11.4118 9.04535 11.5337 9.33377 11.6255C9.8103 11.7766 10.2442 11.7545 10.5877 11.7042C10.9701 11.6476 11.7653 11.2255 11.9312 10.7626C12.0971 10.2999 12.0971 9.90332 12.0475 9.82025C11.9977 9.73724 11.8638 9.68689 11.6659 9.58801Z" fill-rule="evenodd" fill="#E4E5EA"/>
</svg>
